# xmcd
#
# Track frame offsets:
#	150
#	11782
#	23332
#	35985
#	48655
#	59205
#	70125
#	85302
#	96762
#	108655
#	119940
#	132632
#	145890
#	154635
#	166200
#	181802
#	193292
#	207415
#	219140
#	234205
#
# Disc length: 3290 seconds
# Revision: 6
# Processed by: cddbd v1.5.2PL0 Copyright (c) Steve Scherf et al.
# Submitted via: dBpowerAMP V12.0
#
DISCID=2d0cd814
DTITLE=Sonny Boy Williamson - His Best
DYEAR=1955
DGENRE=Blues
TTITLE0=Good Evening Everybody
TTITLE1=Don't Start Me To Talkin'
TTITLE2=All My Love In Vain
TTITLE3=Keep It To Yourself
TTITLE4=Fattening Frogs For Snakes
TTITLE5=I Don't Know
TTITLE6=Cross My Heart
TTITLE7=Born Blind
TTITLE8=Ninety Nine
TTITLE9=Your Funeral And My Trial
TTITLE10=Keep Your Hands Out Of My Pocket
TTITLE11=Sad To Be Alone
TTITLE12=Checkin' Up On My Baby
TTITLE13=Down Child
TTITLE14=Nine Below Zero
TTITLE15=Bye Bye bird
TTITLE16=Help Me
TTITLE17=Bring It On Home
TTITLE18=My Younger Days
TTITLE19=One Way out
EXTD=
EXTT0=
EXTT1=
EXTT2=
EXTT3=
EXTT4=
EXTT5=
EXTT6=
EXTT7=
EXTT8=
EXTT9=
EXTT10=
EXTT11=
EXTT12=
EXTT13=
EXTT14=
EXTT15=
EXTT16=
EXTT17=
EXTT18=
EXTT19=
PLAYORDER=
